<svg width="36" height="38" viewBox="0 0 36 38" fill="none" xmlns="http://www.w3.org/2000/svg">
<g filter="url(#filter0_d_9_2362)">
<path fill-rule="evenodd" clip-rule="evenodd" d="M4 13C4 17.3628 6.44938 21.1323 10 22.9107V20.6003C7.61019 19.0152 6 16.2291 6 13C6 7.96046 9.92179 4 14.6083 4C18.5839 4 22.0091 6.85004 22.9569 10.7911L22.9599 10.7899C23.0937 11.3367 23.1791 11.9037 23.2108 12.4855C23.8339 12.1732 24.5272 12 25.2493 12C27.8053 12 30 14.1696 30 17C30 18.7105 29.1984 20.1797 28 21.0745V23.3944C30.3573 22.3025 32 19.8501 32 17C32 13.134 28.9776 10 25.2493 10C25.1054 10 24.9626 10.0047 24.821 10.0139C23.5661 5.38976 19.469 2 14.6083 2C8.74949 2 4 6.92487 4 13ZM20.719 20.2026C20.9287 20.3237 21.2571 20.2708 21.4251 19.9798C21.5171 19.8204 21.6353 19.4894 21.721 18.9505C21.7551 18.7357 21.7808 18.5091 21.7995 18.2764C21.2154 18.6896 20.7729 19.1085 20.5588 19.4795C20.3908 19.7705 20.5093 20.0815 20.719 20.2026ZM21.7944 15.9217C22.8367 15.3377 23.7192 15.0042 23.7192 15.0042C23.7192 15.0042 23.8347 15.9432 23.8392 17.1264C23.8441 18.4226 23.7159 20.0116 23.157 20.9801C22.4541 22.198 20.915 22.6254 19.7192 21.9348C18.5235 21.2442 18.124 19.6971 18.8269 18.4792C19.4402 17.4164 20.7047 16.5323 21.7944 15.9217ZM14.1161 21.2203C14.3258 21.3414 14.6543 21.2885 14.8223 20.9975C14.9142 20.8381 15.0325 20.5071 15.1181 19.9682C15.1522 19.7534 15.178 19.5268 15.1966 19.2941C14.6126 19.7073 14.17 20.1262 13.9559 20.4972C13.788 20.7882 13.9064 21.0992 14.1161 21.2203ZM15.1916 16.9394C16.2339 16.3554 17.1164 16.0218 17.1164 16.0218C17.1164 16.0218 17.2318 16.9609 17.2363 18.1441C17.2413 19.4402 17.1131 21.0293 16.5541 21.9978C15.8513 23.2157 14.3121 23.6431 13.1164 22.9525C11.9207 22.2619 11.5211 20.7148 12.224 19.4969C12.8374 18.4341 14.1018 17.5499 15.1916 16.9394ZM23.6793 26.1129C23.5113 26.4039 23.1829 26.4567 22.9732 26.3356C22.7635 26.2145 22.645 25.9035 22.813 25.6125C23.0271 25.2415 23.4696 24.8227 24.0537 24.4095C24.0351 24.6421 24.0093 24.8687 23.9752 25.0836C23.8895 25.6225 23.7713 25.9535 23.6793 26.1129ZM25.9734 21.1372C25.9734 21.1372 25.0909 21.4708 24.0486 22.0548C22.9589 22.6653 21.6944 23.5495 21.0811 24.6122C20.3782 25.8301 20.7777 27.3772 21.9734 28.0678C23.1692 28.7584 24.7083 28.331 25.4112 27.1131C25.9701 26.1447 26.0983 24.5556 26.0934 23.2594C26.0889 22.0763 25.9734 21.1372 25.9734 21.1372ZM16.2549 27.9375C16.4645 28.0586 16.793 28.0058 16.961 27.7147C17.053 27.5554 17.1712 27.2244 17.2568 26.6855C17.291 26.4706 17.3167 26.244 17.3354 26.0113C16.7513 26.4246 16.3088 26.8434 16.0947 27.2144C15.9267 27.5054 16.0452 27.8164 16.2549 27.9375ZM17.3303 23.6566C18.3726 23.0727 19.2551 22.7391 19.2551 22.7391C19.2551 22.7391 19.3706 23.6781 19.3751 24.8613C19.38 26.1575 19.2518 27.7466 18.6929 28.715C17.99 29.9329 16.4509 30.3603 15.2551 29.6697C14.0594 28.9791 13.6599 27.432 14.3628 26.2141C14.9761 25.1514 16.2406 24.2672 17.3303 23.6566Z" fill="url(#paint0_linear_9_2362)"/>
</g>
<defs>
<filter id="filter0_d_9_2362" x="-2" y="0" width="40" height="40" filterUnits="userSpaceOnUse" color-interpolation-filters="sRGB">
<feFlood flood-opacity="0" result="BackgroundImageFix"/>
<feColorMatrix in="SourceAlpha" type="matrix" values="0 0 0 0 0 0 0 0 0 0 0 0 0 0 0 0 0 0 127 0" result="hardAlpha"/>
<feOffset dy="4"/>
<feGaussianBlur stdDeviation="2"/>
<feComposite in2="hardAlpha" operator="out"/>
<feColorMatrix type="matrix" values="0 0 0 0 0 0 0 0 0 0 0 0 0 0 0 0 0 0 0.25 0"/>
<feBlend mode="normal" in2="BackgroundImageFix" result="effect1_dropShadow_9_2362"/>
<feBlend mode="normal" in="SourceGraphic" in2="effect1_dropShadow_9_2362" result="shape"/>
</filter>
<linearGradient id="paint0_linear_9_2362" x1="18" y1="2" x2="18" y2="30" gradientUnits="userSpaceOnUse">
<stop stop-color="#95B6F6"/>
<stop offset="1" stop-color="#5193DE"/>
</linearGradient>
</defs>
</svg>
