 <svg
              width="188"
              height="188"
              viewBox="0 0 188 188"
              fill="none"
              xmlns="http://www.w3.org/2000/svg"
            >
              <path
                fill-rule="evenodd"
                clip-rule="evenodd"
                d="M88.125 11.75V29.375H99.875V11.75H88.125ZM121.098 124.936C129.696 117.398 135.125 106.333 135.125 94C135.125 71.2872 116.713 52.875 94 52.875C71.2873 52.875 52.875 71.2872 52.875 94C52.875 94.8331 52.8998 95.6603 52.9486 96.481C48.9257 97.8951 45.1699 99.8762 41.7772 102.328C41.348 99.6153 41.125 96.8341 41.125 94C41.125 64.7977 64.7977 41.125 94 41.125C123.202 41.125 146.875 64.7977 146.875 94C146.875 108.502 141.036 121.641 131.581 131.194C128.596 128.429 125.035 126.276 121.098 124.936ZM158.625 88.125H176.25V99.875H158.625V88.125ZM162.293 47.7871L147.03 56.5996L152.905 66.7752L168.168 57.9629L162.293 47.7871ZM121.225 35.0961L130.037 19.8324L140.213 25.7074L131.401 40.9711L121.225 35.0961ZM47.7871 25.7074L56.5996 40.9711L66.7752 35.0961L57.9629 19.8324L47.7871 25.7074ZM35.0958 66.7752L19.8321 57.9629L25.7071 47.7871L40.9708 56.5996L35.0958 66.7752ZM29.375 88.125H11.75V99.875H29.375V88.125ZM162.293 140.213L147.03 131.4L152.905 121.225L168.168 130.037L162.293 140.213Z"
                fill="url(#paint0_linear_10_1160)"
              />
              <path
                fill-rule="evenodd"
                clip-rule="evenodd"
                d="M67.5625 164.499C67.7258 164.499 67.8891 164.498 68.0519 164.495H111.233C111.308 164.496 111.383 164.498 111.458 164.499H111.625V164.499C121.359 164.499 129.25 156.608 129.25 146.874C129.25 137.14 121.359 129.249 111.625 129.249C107.105 129.249 102.982 130.951 99.8627 133.748C99.8873 133.231 99.8997 132.711 99.8997 132.188C99.8997 128.22 99.1847 124.42 97.8763 120.909C101.978 118.732 106.658 117.499 111.625 117.499C127.848 117.499 141 130.651 141 146.874C141 163.098 127.848 176.249 111.625 176.249C111.553 176.249 111.482 176.249 111.41 176.249H67.7905V176.248C67.7141 176.248 67.6383 176.249 67.5625 176.249C43.2275 176.249 23.5 156.521 23.5 132.186C23.5 107.851 43.2275 88.1238 67.5625 88.1238C86.7861 88.1238 103.134 100.434 109.154 117.602C105.098 117.939 101.276 119.101 97.8564 120.919C93.2833 108.629 81.4457 99.8738 67.5625 99.8738C49.7168 99.8738 35.25 114.34 35.25 132.186C35.25 150.032 49.7168 164.499 67.5625 164.499Z"
                fill="url(#paint1_linear_10_1160)"
              />
              <defs>
                <linearGradient
                  id="paint0_linear_10_1160"
                  x1="94"
                  y1="11.75"
                  x2="94"
                  y2="140.213"
                  gradientUnits="userSpaceOnUse"
                >
                  <stop stop-color="#EFC977" />
                  <stop offset="1" stop-color="#E07256" />
                </linearGradient>
                <linearGradient
                  id="paint1_linear_10_1160"
                  x1="82.25"
                  y1="88.1238"
                  x2="82.25"
                  y2="176.249"
                  gradientUnits="userSpaceOnUse"
                >
                  <stop stop-color="#B2D4F7" />
                  <stop offset="1" stop-color="#D9E2F3" />
                </linearGradient>
              </defs>
            </svg>